<?xml version="1.0" encoding="UTF-8"?>
<svg xmlns="http://www.w3.org/2000/svg" xmlns:xlink="http://www.w3.org/1999/xlink" width="30pt" height="30pt" viewBox="0 0 30 30" version="1.1">
<g id="surface1">
<path style=" stroke:none;fill-rule:nonzero;fill:rgb(0%,0%,0%);fill-opacity:1;" d="M 28.402344 0 L 1.597656 0 C 0.714844 0 0 0.714844 0 1.597656 L 0 28.402344 C 0 29.285156 0.714844 30 1.597656 30 L 28.402344 30 C 29.285156 30 30 29.285156 30 28.402344 L 30 1.558594 C 30 0.679688 29.285156 -0.0351562 28.402344 -0.0351562 Z M 8.4375 26.867188 L 3.503906 26.867188 L 3.503906 11.003906 L 8.4375 11.003906 Z M 5.976562 8.867188 C 4.398438 8.867188 3.121094 7.589844 3.121094 6.011719 C 3.121094 4.433594 4.398438 3.15625 5.976562 3.15625 C 7.554688 3.15625 8.832031 4.433594 8.832031 6.011719 C 8.832031 7.589844 7.554688 8.867188 5.976562 8.867188 Z M 26.902344 26.867188 L 21.972656 26.867188 L 21.972656 19.152344 C 21.972656 17.316406 21.972656 14.941406 19.402344 14.941406 C 16.835938 14.941406 16.453125 16.945312 16.453125 19.007812 L 16.453125 26.855469 L 11.519531 26.855469 L 11.519531 11.003906 L 16.246094 11.003906 L 16.246094 13.175781 L 16.320312 13.175781 C 17.285156 11.523438 19.078125 10.539062 20.988281 10.609375 C 25.980469 10.609375 26.902344 13.894531 26.902344 18.167969 Z M 26.902344 26.867188 "/>
</g>
</svg>
